<mxfile host="65bd71144e">
    <diagram id="pIaEtrtLPv3HG8r1JEND" name="Page-1">
        <mxGraphModel dx="861" dy="591" grid="1" gridSize="10" guides="1" tooltips="1" connect="1" arrows="1" fold="1" page="1" pageScale="1" pageWidth="850" pageHeight="1100" math="0" shadow="0">
            <root>
                <mxCell id="0"/>
                <mxCell id="1" parent="0"/>
                <mxCell id="2" value="" style="rounded=0;whiteSpace=wrap;html=1;" parent="1" vertex="1">
                    <mxGeometry x="80" y="80" width="400" height="300" as="geometry"/>
                </mxCell>
                <mxCell id="3" value="What Kind of Movie Can You Watch" style="rounded=0;whiteSpace=wrap;html=1;" parent="1" vertex="1">
                    <mxGeometry x="80" y="80" width="400" height="40" as="geometry"/>
                </mxCell>
                <mxCell id="7" value="Select your Age" style="text;html=1;strokeColor=none;fillColor=none;align=left;verticalAlign=middle;whiteSpace=wrap;rounded=0;" parent="1" vertex="1">
                    <mxGeometry x="90" y="130" width="210" height="30" as="geometry"/>
                </mxCell>
                <mxCell id="8" value="" style="rounded=0;whiteSpace=wrap;html=1;fillColor=#FFFFFF;" parent="1" vertex="1">
                    <mxGeometry x="90" y="160" width="240" height="10" as="geometry"/>
                </mxCell>
                <mxCell id="11" value="Your age:&amp;nbsp; 25" style="text;html=1;strokeColor=none;fillColor=none;align=left;verticalAlign=middle;whiteSpace=wrap;rounded=0;" parent="1" vertex="1">
                    <mxGeometry x="91" y="180" width="110" height="30" as="geometry"/>
                </mxCell>
                <mxCell id="14" value="You can see up to an R rated movie." style="text;html=1;strokeColor=none;fillColor=none;align=left;verticalAlign=middle;whiteSpace=wrap;rounded=0;" parent="1" vertex="1">
                    <mxGeometry x="90" y="210" width="280" height="30" as="geometry"/>
                </mxCell>
                <mxCell id="17" value="" style="ellipse;whiteSpace=wrap;html=1;aspect=fixed;fillColor=#FFFFFF;" parent="1" vertex="1">
                    <mxGeometry x="110.5" y="152.5" width="25" height="25" as="geometry"/>
                </mxCell>
            </root>
        </mxGraphModel>
    </diagram>
</mxfile>